<svg xmlns="http://www.w3.org/2000/svg" viewBox="0 0 1600 560" preserveAspectRatio="xMidYMid slice" role="img" aria-label="Ukraine landscape">
  <defs>
    <linearGradient id="sky" x1="0" y1="0" x2="0" y2="1">
      <stop offset="0" stop-color="#2f6bff"/><stop offset=".45" stop-color="#7fb0ff"/><stop offset=".72" stop-color="#ffe08a"/><stop offset="1" stop-color="#ffd24d"/>
    </linearGradient>
    <radialGradient id="sun" cx="50%" cy="50%" r="50%">
      <stop offset="0" stop-color="#fff7db"/><stop offset=".5" stop-color="#ffe27a" stop-opacity=".9"/><stop offset="1" stop-color="#ffe27a" stop-opacity="0"/>
    </radialGradient>
    <linearGradient id="field" x1="0" y1="0" x2="0" y2="1">
      <stop offset="0" stop-color="#f7c948"/><stop offset="1" stop-color="#e6a915"/>
    </linearGradient>
  </defs>
  <rect width="1600" height="560" fill="url(#sky)"/>
  <circle cx="1160" cy="250" r="230" fill="url(#sun)"/>
  <circle cx="1160" cy="250" r="70" fill="#fff3c4"/>
  <!-- distant Carpathian ridges -->
  <path d="M0 300 L180 250 L360 295 L560 235 L780 290 L1000 245 L1230 300 L1420 255 L1600 300 V560 H0 Z" fill="#9cc0ff" opacity=".55"/>
  <path d="M0 340 L200 300 L430 345 L650 300 L880 350 L1120 305 L1340 350 L1600 320 V560 H0 Z" fill="#6f9cff" opacity=".5"/>
  <!-- Kyiv skyline silhouette -->
  <g fill="#2b3d78" opacity=".92" transform="translate(120,300)">
    <rect x="60" y="20" width="26" height="70"/><rect x="92" y="0" width="10" height="90"/>
    <path d="M70 20 q3 -20 8 -20 q5 0 8 20 Z" fill="#f7c948"/>
    <rect x="180" y="35" width="60" height="55"/><path d="M180 35 q30 -34 60 0 Z"/>
    <ellipse cx="210" cy="30" rx="12" ry="18" fill="#f7c948"/><rect x="207" y="8" width="6" height="10" fill="#f7c948"/>
    <rect x="300" y="10" width="14" height="80"/><path d="M300 10 l7 -16 l7 16 Z" fill="#f7c948"/>
    <rect x="360" y="45" width="70" height="45"/><path d="M360 45 h70 l-35 -26 Z"/>
    <rect x="470" y="30" width="44" height="60"/><ellipse cx="492" cy="26" rx="16" ry="20" fill="#f7c948"/>
    <rect x="560" y="18" width="12" height="72"/><path d="M560 18 q6 -14 12 0 Z" fill="#f7c948"/>
    <rect x="620" y="40" width="80" height="50"/><path d="M620 40 q40 -30 80 0 Z"/><ellipse cx="660" cy="34" rx="12" ry="16" fill="#f7c948"/>
    <rect x="760" y="26" width="16" height="64"/><path d="M760 26 l8 -14 l8 14 Z" fill="#f7c948"/>
    <rect x="820" y="48" width="120" height="42"/>
  </g>
  <!-- golden field -->
  <path d="M0 420 C300 388 620 452 960 410 C1220 380 1420 430 1600 404 V560 H0 Z" fill="url(#field)"/>
  <path d="M0 470 C360 440 760 500 1160 460 C1360 442 1500 476 1600 462 V560 H0 Z" fill="#c9900f" opacity=".55"/>
  <!-- sunflowers -->
  <g>
    <g transform="translate(150,470)"><rect x="-3" y="0" width="6" height="70" fill="#3f7d2e"/><circle cx="0" cy="0" r="16" fill="#6b4a13"/><g fill="#ffce3a"><ellipse cx="0" cy="-22" rx="6" ry="12"/><ellipse cx="0" cy="22" rx="6" ry="12"/><ellipse cx="-22" cy="0" rx="12" ry="6"/><ellipse cx="22" cy="0" rx="12" ry="6"/><ellipse cx="-15" cy="-15" rx="9" ry="9" transform="rotate(45 -15 -15)"/><ellipse cx="15" cy="-15" rx="9" ry="9" transform="rotate(-45 15 -15)"/><ellipse cx="-15" cy="15" rx="9" ry="9" transform="rotate(-45 -15 15)"/><ellipse cx="15" cy="15" rx="9" ry="9" transform="rotate(45 15 15)"/></g></g>
    <g transform="translate(300,486) scale(.8)"><rect x="-3" y="0" width="6" height="80" fill="#3f7d2e"/><circle cx="0" cy="0" r="16" fill="#6b4a13"/><g fill="#ffce3a"><ellipse cx="0" cy="-22" rx="6" ry="12"/><ellipse cx="0" cy="22" rx="6" ry="12"/><ellipse cx="-22" cy="0" rx="12" ry="6"/><ellipse cx="22" cy="0" rx="12" ry="6"/></g></g>
    <g transform="translate(1290,478) scale(.9)"><rect x="-3" y="0" width="6" height="74" fill="#3f7d2e"/><circle cx="0" cy="0" r="16" fill="#6b4a13"/><g fill="#ffce3a"><ellipse cx="0" cy="-22" rx="6" ry="12"/><ellipse cx="0" cy="22" rx="6" ry="12"/><ellipse cx="-22" cy="0" rx="12" ry="6"/><ellipse cx="22" cy="0" rx="12" ry="6"/><ellipse cx="-15" cy="-15" rx="9" ry="9" transform="rotate(45 -15 -15)"/><ellipse cx="15" cy="-15" rx="9" ry="9" transform="rotate(-45 15 -15)"/></g></g>
    <g transform="translate(1440,494) scale(.7)"><rect x="-3" y="0" width="6" height="86" fill="#3f7d2e"/><circle cx="0" cy="0" r="16" fill="#6b4a13"/><g fill="#ffce3a"><ellipse cx="0" cy="-22" rx="6" ry="12"/><ellipse cx="0" cy="22" rx="6" ry="12"/><ellipse cx="-22" cy="0" rx="12" ry="6"/><ellipse cx="22" cy="0" rx="12" ry="6"/></g></g>
  </g>
</svg>
